<svg width="19" height="19" viewBox="0 0 19 19" fill="none" xmlns="http://www.w3.org/2000/svg">
<path d="M2.67772 0.111076C2.02694 0.273771 1.53885 0.552679 1.04302 1.04851C0.539436 1.55209 0.22954 2.10216 0.0900869 2.77618C-0.0338715 3.35724 -0.0261241 15.327 0.0900869 15.9003C0.376741 17.2328 1.44588 18.302 2.77843 18.5886C3.35174 18.7048 15.3215 18.7126 15.9025 18.5886C17.2196 18.3097 18.312 17.2096 18.5909 15.9003C18.7148 15.3192 18.7071 3.34174 18.5909 2.77618C18.3042 1.44363 17.2273 0.366741 15.9025 0.0878353C15.2905 -0.0438709 3.20454 -0.0206299 2.67772 0.111076ZM7.3494 5.77442C7.5121 5.84415 8.00793 6.26251 8.50376 6.76609L9.37922 7.62605L10.2857 6.72736C11.3161 5.71245 11.6105 5.5575 12.1605 5.72794C12.5324 5.8364 12.9198 6.25476 12.9818 6.61889C13.0825 7.12247 12.9043 7.41687 11.9514 8.3853L11.0527 9.29949L11.9514 10.2059C12.9043 11.1821 13.0825 11.4765 12.9818 11.9801C12.9198 12.3442 12.5324 12.7626 12.1605 12.871C11.6105 13.0415 11.3161 12.8865 10.2934 11.8716L9.37922 10.9729L8.47277 11.8716C7.4966 12.8246 7.2022 13.0027 6.69862 12.902C6.33449 12.8401 5.91613 12.4527 5.80767 12.0808C5.63723 11.5307 5.79217 11.2363 6.80708 10.2059L7.70578 9.29949L6.80708 8.3853C5.85415 7.42462 5.67596 7.11473 5.76893 6.62664C5.8619 6.13855 6.40422 5.66596 6.88456 5.65821C6.97753 5.65821 7.18671 5.71245 7.3494 5.77442Z" fill="#F49600"/>
</svg>
