<svg width="15" height="15" viewBox="0 0 15 15" fill="none" xmlns="http://www.w3.org/2000/svg">
<path d="M7.5 1.25C5.89774 1.25457 4.35843 1.87432 3.2 2.98125V1.875C3.2 1.70924 3.13415 1.55027 3.01694 1.43306C2.89973 1.31585 2.74076 1.25 2.575 1.25C2.40924 1.25 2.25027 1.31585 2.13306 1.43306C2.01585 1.55027 1.95 1.70924 1.95 1.875V4.6875C1.95 4.85326 2.01585 5.01223 2.13306 5.12944C2.25027 5.24665 2.40924 5.3125 2.575 5.3125H5.3875C5.55326 5.3125 5.71223 5.24665 5.82944 5.12944C5.94665 5.01223 6.0125 4.85326 6.0125 4.6875C6.0125 4.52174 5.94665 4.36277 5.82944 4.24556C5.71223 4.12835 5.55326 4.0625 5.3875 4.0625H3.8875C4.69111 3.22272 5.76219 2.68916 6.91658 2.55354C8.07098 2.41793 9.23655 2.68873 10.2129 3.3194C11.1893 3.95007 11.9154 4.9012 12.2665 6.00924C12.6175 7.11729 12.5716 8.31303 12.1365 9.39087C11.7015 10.4687 10.9045 11.3613 9.8826 11.9152C8.86072 12.4691 7.6778 12.6496 6.53722 12.4258C5.39664 12.202 4.36967 11.5878 3.63287 10.6889C2.89607 9.7899 2.49549 8.66232 2.5 7.5C2.5 7.33424 2.43415 7.17527 2.31694 7.05806C2.19973 6.94085 2.04076 6.875 1.875 6.875C1.70924 6.875 1.55027 6.94085 1.43306 7.05806C1.31585 7.17527 1.25 7.33424 1.25 7.5C1.25 8.73613 1.61656 9.94451 2.30331 10.9723C2.99007 12.0001 3.96619 12.8012 5.10823 13.2742C6.25027 13.7473 7.50693 13.8711 8.71931 13.6299C9.9317 13.3888 11.0453 12.7935 11.9194 11.9194C12.7935 11.0453 13.3888 9.9317 13.6299 8.71931C13.8711 7.50693 13.7473 6.25027 13.2742 5.10823C12.8012 3.96619 12.0001 2.99007 10.9723 2.30331C9.94451 1.61656 8.73613 1.25 7.5 1.25ZM7.5 5C7.33424 5 7.17527 5.06585 7.05806 5.18306C6.94085 5.30027 6.875 5.45924 6.875 5.625V7.5C6.875 7.66576 6.94085 7.82473 7.05806 7.94194C7.17527 8.05915 7.33424 8.125 7.5 8.125H8.75C8.91576 8.125 9.07473 8.05915 9.19194 7.94194C9.30915 7.82473 9.375 7.66576 9.375 7.5C9.375 7.33424 9.30915 7.17527 9.19194 7.05806C9.07473 6.94085 8.91576 6.875 8.75 6.875H8.125V5.625C8.125 5.45924 8.05915 5.30027 7.94194 5.18306C7.82473 5.06585 7.66576 5 7.5 5Z" fill="#2424FF"/>
</svg>
