<svg width="19" height="19" viewBox="0 0 19 19" fill="none" xmlns="http://www.w3.org/2000/svg">
<path d="M2.67772 0.111076C2.02694 0.273771 1.53885 0.552679 1.04302 1.04851C0.539436 1.55209 0.22954 2.10216 0.0900869 2.77618C-0.0338715 3.35724 -0.0261241 15.327 0.0900869 15.9003C0.376741 17.2328 1.44588 18.302 2.77843 18.5886C3.35174 18.7048 15.3215 18.7126 15.9025 18.5886C17.2196 18.3097 18.312 17.2096 18.5909 15.9003C18.7148 15.3192 18.7071 3.34174 18.5909 2.77618C18.3042 1.44363 17.2273 0.366741 15.9025 0.0878353C15.2905 -0.0438709 3.20454 -0.0206299 2.67772 0.111076ZM13.4079 5.96811C13.7565 6.1463 14.0277 6.5879 14.0277 6.97527C14.0277 7.36264 13.7565 7.80424 13.4079 7.98243C13.1135 8.12963 12.9585 8.13738 9.33274 8.13738C5.57525 8.13738 5.5675 8.13738 5.2576 7.96694C4.47512 7.52534 4.46737 6.46394 5.24211 5.9991L5.54426 5.81316H9.32499C12.9585 5.81316 13.1135 5.82091 13.4079 5.96811ZM13.4079 10.6165C13.7565 10.7947 14.0277 11.2363 14.0277 11.6237C14.0277 12.0111 13.7565 12.4527 13.4079 12.6309C13.1135 12.7781 12.9585 12.7858 9.33274 12.7858C5.57525 12.7858 5.5675 12.7858 5.2576 12.6154C4.47512 12.1738 4.46737 11.1124 5.24211 10.6475L5.54426 10.4616H9.32499C12.9585 10.4616 13.1135 10.4693 13.4079 10.6165Z" fill="#FFC362"/>
</svg>
