<svg width="19" height="20" viewBox="0 0 19 20" fill="none" xmlns="http://www.w3.org/2000/svg">
<mask id="path-1-inside-1_1907_6029" fill="white">
<path d="M9.50016 17.3333H3.0835C2.84038 17.3333 2.60722 17.2368 2.43531 17.0648C2.26341 16.8929 2.16683 16.6598 2.16683 16.4167V3.58333C2.16683 3.34021 2.26341 3.10706 2.43531 2.93515C2.60722 2.76324 2.84038 2.66666 3.0835 2.66666H7.66683V5.41666C7.66683 6.14601 7.95656 6.84548 8.47229 7.36121C8.98801 7.87693 9.68748 8.16666 10.4168 8.16666H13.1668V9.08333C13.1668 9.32644 13.2634 9.5596 13.4353 9.73151C13.6072 9.90342 13.8404 9.99999 14.0835 9.99999C14.3266 9.99999 14.5598 9.90342 14.7317 9.73151C14.9036 9.5596 15.0002 9.32644 15.0002 9.08333V7.24999C15.0002 7.24999 15.0002 7.24999 15.0002 7.19499C14.9906 7.11078 14.9722 7.02782 14.9452 6.94749V6.86499C14.9011 6.77074 14.8423 6.6841 14.771 6.60833L9.271 1.10833C9.19522 1.03703 9.10858 0.978236 9.01433 0.934161C8.98697 0.930275 8.95919 0.930275 8.93183 0.934161C8.83871 0.880758 8.73587 0.846477 8.62933 0.833328H3.0835C2.35415 0.833328 1.65468 1.12306 1.13895 1.63878C0.623227 2.15451 0.333496 2.85398 0.333496 3.58333V16.4167C0.333496 17.146 0.623227 17.8455 1.13895 18.3612C1.65468 18.8769 2.35415 19.1667 3.0835 19.1667H9.50016C9.74328 19.1667 9.97643 19.0701 10.1483 18.8982C10.3203 18.7263 10.4168 18.4931 10.4168 18.25C10.4168 18.0069 10.3203 17.7737 10.1483 17.6018C9.97643 17.4299 9.74328 17.3333 9.50016 17.3333ZM9.50016 3.95916L11.8743 6.33333H10.4168C10.1737 6.33333 9.94056 6.23675 9.76865 6.06484C9.59674 5.89293 9.50016 5.65978 9.50016 5.41666V3.95916ZM4.91683 6.33333C4.67371 6.33333 4.44056 6.42991 4.26865 6.60181C4.09674 6.77372 4.00016 7.00688 4.00016 7.24999C4.00016 7.49311 4.09674 7.72627 4.26865 7.89818C4.44056 8.07008 4.67371 8.16666 4.91683 8.16666H5.8335C6.07661 8.16666 6.30977 8.07008 6.48168 7.89818C6.65359 7.72627 6.75016 7.49311 6.75016 7.24999C6.75016 7.00688 6.65359 6.77372 6.48168 6.60181C6.30977 6.42991 6.07661 6.33333 5.8335 6.33333H4.91683ZM18.401 17.5992L17.3285 16.5358C17.6713 15.9375 17.8085 15.2432 17.7191 14.5595C17.6297 13.8757 17.3186 13.2401 16.8335 12.75C16.3871 12.2877 15.8118 11.9705 15.1826 11.8399C14.5534 11.7092 13.8994 11.7711 13.3058 12.0174C12.7123 12.2637 12.2067 12.6831 11.8549 13.2209C11.5031 13.7587 11.3214 14.39 11.3335 15.0325C11.3303 15.5854 11.4718 16.1296 11.7438 16.6109C12.0158 17.0923 12.409 17.4942 12.8843 17.7768C13.3595 18.0594 13.9004 18.2128 14.4533 18.2218C15.0061 18.2309 15.5517 18.0952 16.036 17.8283L17.0993 18.9008C17.1845 18.9867 17.2859 19.0549 17.3976 19.1015C17.5093 19.148 17.6292 19.172 17.7502 19.172C17.8712 19.172 17.991 19.148 18.1027 19.1015C18.2144 19.0549 18.3158 18.9867 18.401 18.9008C18.4869 18.8156 18.5551 18.7142 18.6016 18.6025C18.6482 18.4908 18.6721 18.371 18.6721 18.25C18.6721 18.129 18.6482 18.0092 18.6016 17.8975C18.5551 17.7858 18.4869 17.6844 18.401 17.5992ZM15.4952 15.995C15.2333 16.2412 14.8875 16.3783 14.5281 16.3783C14.1687 16.3783 13.8228 16.2412 13.561 15.995C13.3087 15.7381 13.1671 15.3926 13.1668 15.0325C13.1649 14.8517 13.1997 14.6724 13.269 14.5054C13.3383 14.3384 13.4408 14.1871 13.5702 14.0608C13.8146 13.8178 14.1423 13.6768 14.4868 13.6667C14.6722 13.6553 14.8578 13.6823 15.0322 13.7461C15.2066 13.8098 15.3659 13.9089 15.5002 14.0372C15.6345 14.1654 15.7408 14.32 15.8125 14.4913C15.8842 14.6626 15.9197 14.8468 15.9168 15.0325C15.9092 15.3965 15.7576 15.7426 15.4952 15.995ZM10.4168 9.99999H4.91683C4.67371 9.99999 4.44056 10.0966 4.26865 10.2685C4.09674 10.4404 4.00016 10.6735 4.00016 10.9167C4.00016 11.1598 4.09674 11.3929 4.26865 11.5648C4.44056 11.7368 4.67371 11.8333 4.91683 11.8333H10.4168C10.6599 11.8333 10.8931 11.7368 11.065 11.5648C11.2369 11.3929 11.3335 11.1598 11.3335 10.9167C11.3335 10.6735 11.2369 10.4404 11.065 10.2685C10.8931 10.0966 10.6599 9.99999 10.4168 9.99999ZM8.5835 15.5C8.82661 15.5 9.05977 15.4034 9.23168 15.2315C9.40359 15.0596 9.50016 14.8264 9.50016 14.5833C9.50016 14.3402 9.40359 14.1071 9.23168 13.9351C9.05977 13.7632 8.82661 13.6667 8.5835 13.6667H4.91683C4.67371 13.6667 4.44056 13.7632 4.26865 13.9351C4.09674 14.1071 4.00016 14.3402 4.00016 14.5833C4.00016 14.8264 4.09674 15.0596 4.26865 15.2315C4.44056 15.4034 4.67371 15.5 4.91683 15.5H8.5835Z"/>
</mask>
<path d="M9.50016 17.3333H3.0835C2.84038 17.3333 2.60722 17.2368 2.43531 17.0648C2.26341 16.8929 2.16683 16.6598 2.16683 16.4167V3.58333C2.16683 3.34021 2.26341 3.10706 2.43531 2.93515C2.60722 2.76324 2.84038 2.66666 3.0835 2.66666H7.66683V5.41666C7.66683 6.14601 7.95656 6.84548 8.47229 7.36121C8.98801 7.87693 9.68748 8.16666 10.4168 8.16666H13.1668V9.08333C13.1668 9.32644 13.2634 9.5596 13.4353 9.73151C13.6072 9.90342 13.8404 9.99999 14.0835 9.99999C14.3266 9.99999 14.5598 9.90342 14.7317 9.73151C14.9036 9.5596 15.0002 9.32644 15.0002 9.08333V7.24999C15.0002 7.24999 15.0002 7.24999 15.0002 7.19499C14.9906 7.11078 14.9722 7.02782 14.9452 6.94749V6.86499C14.9011 6.77074 14.8423 6.6841 14.771 6.60833L9.271 1.10833C9.19522 1.03703 9.10858 0.978236 9.01433 0.934161C8.98697 0.930275 8.95919 0.930275 8.93183 0.934161C8.83871 0.880758 8.73587 0.846477 8.62933 0.833328H3.0835C2.35415 0.833328 1.65468 1.12306 1.13895 1.63878C0.623227 2.15451 0.333496 2.85398 0.333496 3.58333V16.4167C0.333496 17.146 0.623227 17.8455 1.13895 18.3612C1.65468 18.8769 2.35415 19.1667 3.0835 19.1667H9.50016C9.74328 19.1667 9.97643 19.0701 10.1483 18.8982C10.3203 18.7263 10.4168 18.4931 10.4168 18.25C10.4168 18.0069 10.3203 17.7737 10.1483 17.6018C9.97643 17.4299 9.74328 17.3333 9.50016 17.3333ZM9.50016 3.95916L11.8743 6.33333H10.4168C10.1737 6.33333 9.94056 6.23675 9.76865 6.06484C9.59674 5.89293 9.50016 5.65978 9.50016 5.41666V3.95916ZM4.91683 6.33333C4.67371 6.33333 4.44056 6.42991 4.26865 6.60181C4.09674 6.77372 4.00016 7.00688 4.00016 7.24999C4.00016 7.49311 4.09674 7.72627 4.26865 7.89818C4.44056 8.07008 4.67371 8.16666 4.91683 8.16666H5.8335C6.07661 8.16666 6.30977 8.07008 6.48168 7.89818C6.65359 7.72627 6.75016 7.49311 6.75016 7.24999C6.75016 7.00688 6.65359 6.77372 6.48168 6.60181C6.30977 6.42991 6.07661 6.33333 5.8335 6.33333H4.91683ZM18.401 17.5992L17.3285 16.5358C17.6713 15.9375 17.8085 15.2432 17.7191 14.5595C17.6297 13.8757 17.3186 13.2401 16.8335 12.75C16.3871 12.2877 15.8118 11.9705 15.1826 11.8399C14.5534 11.7092 13.8994 11.7711 13.3058 12.0174C12.7123 12.2637 12.2067 12.6831 11.8549 13.2209C11.5031 13.7587 11.3214 14.39 11.3335 15.0325C11.3303 15.5854 11.4718 16.1296 11.7438 16.6109C12.0158 17.0923 12.409 17.4942 12.8843 17.7768C13.3595 18.0594 13.9004 18.2128 14.4533 18.2218C15.0061 18.2309 15.5517 18.0952 16.036 17.8283L17.0993 18.9008C17.1845 18.9867 17.2859 19.0549 17.3976 19.1015C17.5093 19.148 17.6292 19.172 17.7502 19.172C17.8712 19.172 17.991 19.148 18.1027 19.1015C18.2144 19.0549 18.3158 18.9867 18.401 18.9008C18.4869 18.8156 18.5551 18.7142 18.6016 18.6025C18.6482 18.4908 18.6721 18.371 18.6721 18.25C18.6721 18.129 18.6482 18.0092 18.6016 17.8975C18.5551 17.7858 18.4869 17.6844 18.401 17.5992ZM15.4952 15.995C15.2333 16.2412 14.8875 16.3783 14.5281 16.3783C14.1687 16.3783 13.8228 16.2412 13.561 15.995C13.3087 15.7381 13.1671 15.3926 13.1668 15.0325C13.1649 14.8517 13.1997 14.6724 13.269 14.5054C13.3383 14.3384 13.4408 14.1871 13.5702 14.0608C13.8146 13.8178 14.1423 13.6768 14.4868 13.6667C14.6722 13.6553 14.8578 13.6823 15.0322 13.7461C15.2066 13.8098 15.3659 13.9089 15.5002 14.0372C15.6345 14.1654 15.7408 14.32 15.8125 14.4913C15.8842 14.6626 15.9197 14.8468 15.9168 15.0325C15.9092 15.3965 15.7576 15.7426 15.4952 15.995ZM10.4168 9.99999H4.91683C4.67371 9.99999 4.44056 10.0966 4.26865 10.2685C4.09674 10.4404 4.00016 10.6735 4.00016 10.9167C4.00016 11.1598 4.09674 11.3929 4.26865 11.5648C4.44056 11.7368 4.67371 11.8333 4.91683 11.8333H10.4168C10.6599 11.8333 10.8931 11.7368 11.065 11.5648C11.2369 11.3929 11.3335 11.1598 11.3335 10.9167C11.3335 10.6735 11.2369 10.4404 11.065 10.2685C10.8931 10.0966 10.6599 9.99999 10.4168 9.99999ZM8.5835 15.5C8.82661 15.5 9.05977 15.4034 9.23168 15.2315C9.40359 15.0596 9.50016 14.8264 9.50016 14.5833C9.50016 14.3402 9.40359 14.1071 9.23168 13.9351C9.05977 13.7632 8.82661 13.6667 8.5835 13.6667H4.91683C4.67371 13.6667 4.44056 13.7632 4.26865 13.9351C4.09674 14.1071 4.00016 14.3402 4.00016 14.5833C4.00016 14.8264 4.09674 15.0596 4.26865 15.2315C4.44056 15.4034 4.67371 15.5 4.91683 15.5H8.5835Z" fill="black" stroke="#2424FF" stroke-width="2" mask="url(#path-1-inside-1_1907_6029)"/>
</svg>
