<svg width="19" height="19" viewBox="0 0 19 19" fill="none" xmlns="http://www.w3.org/2000/svg">
<path d="M2.67772 0.111076C2.02694 0.273771 1.53885 0.552679 1.04302 1.04851C0.539436 1.55209 0.22954 2.10216 0.0900869 2.77618C-0.0338715 3.35724 -0.0261241 15.327 0.0900869 15.9003C0.376741 17.2328 1.44588 18.302 2.77843 18.5886C3.35174 18.7048 15.3215 18.7126 15.9025 18.5886C17.2196 18.3097 18.312 17.2096 18.5909 15.9003C18.7148 15.3192 18.7071 3.34174 18.5909 2.77618C18.3042 1.44363 17.2273 0.366741 15.9025 0.0878353C15.2905 -0.0438709 3.20454 -0.0206299 2.67772 0.111076ZM13.4079 8.3698C13.7565 8.54799 14.0277 8.9896 14.0277 9.37697C14.0277 9.76434 13.7565 10.2059 13.4079 10.3841C13.1135 10.5313 12.9585 10.5391 9.33274 10.5391C5.57525 10.5391 5.5675 10.5391 5.2576 10.3686C4.47512 9.92703 4.46737 8.86564 5.24211 8.40079L5.54426 8.21486H9.32499C12.9585 8.21486 13.1135 8.2226 13.4079 8.3698Z" fill="#F49600"/>
</svg>
