<svg width="23" height="22" viewBox="0 0 23 22" fill="none" xmlns="http://www.w3.org/2000/svg">
<path d="M19.9425 14.5658C19.3594 15.9449 18.4473 17.1602 17.2859 18.1054C16.1246 19.0505 14.7494 19.6968 13.2806 19.9877C11.8118 20.2786 10.2941 20.2053 8.86018 19.7741C7.42626 19.343 6.11978 18.5671 5.05498 17.5144C3.99017 16.4617 3.19946 15.1642 2.75196 13.7353C2.30446 12.3064 2.21381 10.7896 2.48793 9.31758C2.76204 7.84554 3.39258 6.46307 4.32442 5.29102C5.25626 4.11897 6.46102 3.19304 7.83338 2.59416" stroke="#2424FF" stroke-width="2" stroke-linecap="round" stroke-linejoin="round"/>
<path d="M20.6667 11C20.6667 9.79621 20.4296 8.60421 19.9689 7.49206C19.5082 6.37991 18.833 5.36939 17.9818 4.51818C17.1306 3.66698 16.1201 2.99177 15.0079 2.5311C13.8958 2.07043 12.7038 1.83333 11.5 1.83333V11H20.6667Z" stroke="#2424FF" stroke-width="2" stroke-linecap="round" stroke-linejoin="round"/>
</svg>
