<svg width="18" height="18" viewBox="0 0 18 18" fill="none" xmlns="http://www.w3.org/2000/svg">
<path d="M4.71739 10.7175L4.4999 10.9425V5.25C4.4999 5.05109 4.42088 4.86032 4.28022 4.71967C4.13957 4.57902 3.94881 4.5 3.7499 4.5C3.55098 4.5 3.36022 4.57902 3.21957 4.71967C3.07891 4.86032 2.99989 5.05109 2.99989 5.25V10.9425L2.78239 10.7175C2.64117 10.5763 2.44962 10.4969 2.24989 10.4969C2.05017 10.4969 1.85862 10.5763 1.71739 10.7175C1.57617 10.8587 1.49683 11.0503 1.49683 11.25C1.49683 11.4497 1.57617 11.6413 1.71739 11.7825L3.21739 13.2825C3.28872 13.3508 3.37283 13.4043 3.46489 13.44C3.55467 13.4797 3.65174 13.5002 3.7499 13.5002C3.84805 13.5002 3.94512 13.4797 4.03489 13.44C4.12696 13.4043 4.21107 13.3508 4.28239 13.2825L5.78239 11.7825C5.85232 11.7126 5.90779 11.6296 5.94564 11.5382C5.98348 11.4468 6.00296 11.3489 6.00296 11.25C6.00296 11.1511 5.98348 11.0532 5.94564 10.9618C5.90779 10.8704 5.85232 10.7874 5.78239 10.7175C5.71247 10.6476 5.62945 10.5921 5.53808 10.5543C5.44672 10.5164 5.34879 10.4969 5.2499 10.4969C5.151 10.4969 5.05307 10.5164 4.96171 10.5543C4.87034 10.5921 4.78732 10.6476 4.71739 10.7175ZM8.24989 6H15.7499C15.9488 6 16.1396 5.92098 16.2802 5.78033C16.4209 5.63968 16.4999 5.44891 16.4999 5.25C16.4999 5.05109 16.4209 4.86032 16.2802 4.71967C16.1396 4.57902 15.9488 4.5 15.7499 4.5H8.24989C8.05098 4.5 7.86022 4.57902 7.71956 4.71967C7.57891 4.86032 7.49989 5.05109 7.49989 5.25C7.49989 5.44891 7.57891 5.63968 7.71956 5.78033C7.86022 5.92098 8.05098 6 8.24989 6ZM15.7499 8.25H8.24989C8.05098 8.25 7.86022 8.32902 7.71956 8.46967C7.57891 8.61032 7.49989 8.80109 7.49989 9C7.49989 9.19891 7.57891 9.38968 7.71956 9.53033C7.86022 9.67098 8.05098 9.75 8.24989 9.75H15.7499C15.9488 9.75 16.1396 9.67098 16.2802 9.53033C16.4209 9.38968 16.4999 9.19891 16.4999 9C16.4999 8.80109 16.4209 8.61032 16.2802 8.46967C16.1396 8.32902 15.9488 8.25 15.7499 8.25ZM15.7499 12H8.24989C8.05098 12 7.86022 12.079 7.71956 12.2197C7.57891 12.3603 7.49989 12.5511 7.49989 12.75C7.49989 12.9489 7.57891 13.1397 7.71956 13.2803C7.86022 13.421 8.05098 13.5 8.24989 13.5H15.7499C15.9488 13.5 16.1396 13.421 16.2802 13.2803C16.4209 13.1397 16.4999 12.9489 16.4999 12.75C16.4999 12.5511 16.4209 12.3603 16.2802 12.2197C16.1396 12.079 15.9488 12 15.7499 12Z" fill="#3A3A3C"/>
</svg>
